<svg width="430" height="127" viewBox="0 0 430 127" fill="none" xmlns="http://www.w3.org/2000/svg">
<path d="M210.039 126.459C210.039 116.042 209.307 107.335 207.842 100.336C206.377 93.1745 204.342 87.4779 201.738 83.2461C198.971 79.0143 195.798 76.0033 192.217 74.2129C188.473 72.4225 184.404 71.5273 180.01 71.5273C172.523 71.5273 163.571 72.5853 153.154 74.7012C142.575 76.8171 131.344 79.0957 119.463 81.5371C107.581 83.9785 95.4557 86.2572 83.0859 88.373C70.5534 90.4889 58.6719 91.5469 47.4414 91.5469C37.6758 91.5469 29.7819 90.1634 23.7598 87.3965C17.5749 84.6296 12.7734 80.8861 9.35547 76.166C5.9375 71.446 3.65885 65.9935 2.51953 59.8086C1.21745 53.4609 0.566406 46.8691 0.566406 40.0332C0.566406 33.1973 0.973307 26.3613 1.78711 19.5254C2.43815 12.6895 3.00781 6.17904 3.49609 -0.00585938L13.5059 0.482422L13.0176 16.5957C12.8548 21.3158 13.2617 26.1986 14.2383 31.2441C15.0521 36.127 16.8424 40.6842 19.6094 44.916C22.3763 48.985 26.4453 52.403 31.8164 55.1699C37.0247 57.7741 43.9421 59.0762 52.5684 59.0762C61.8457 59.0762 71.9368 58.181 82.8418 56.3906C93.584 54.6003 104.326 52.6471 115.068 50.5313C125.648 48.2526 135.739 46.2181 145.342 44.4277C154.945 42.4746 163.164 41.498 170 41.498C181.23 41.498 190.752 44.8346 198.564 51.5078C206.214 58.181 211.667 67.7025 214.922 80.0723C218.503 67.7025 224.118 58.181 231.768 51.5078C239.255 44.8346 248.695 41.498 260.088 41.498C266.924 41.498 275.143 42.4746 284.746 44.4277C294.349 46.2181 304.44 48.2526 315.02 50.5313C325.599 52.6471 336.341 54.6003 347.246 56.3906C357.988 58.181 368.079 59.0762 377.52 59.0762C386.146 59.0762 393.063 57.7741 398.271 55.1699C403.48 52.403 407.549 48.985 410.479 44.916C413.245 40.6842 415.117 36.127 416.094 31.2441C416.908 26.1986 417.233 21.3158 417.07 16.5957L416.582 0.482422L426.592 -0.00585937C427.406 6.99284 428.057 14.0729 428.545 21.2344C429.196 28.2331 429.521 34.9876 429.521 41.498C429.521 48.4967 428.87 55.0885 427.568 61.2734C426.429 67.2956 424.069 72.5853 420.488 77.1426C417.07 81.5371 412.35 85.0365 406.328 87.6406C400.143 90.2448 392.168 91.5469 382.402 91.5469C371.172 91.5469 359.372 90.4889 347.002 88.373C334.632 86.2572 322.507 83.9785 310.625 81.5371C298.743 79.0957 287.594 76.8171 277.178 74.7012C266.598 72.5853 257.565 71.5273 250.078 71.5273C245.684 71.5273 241.696 72.4225 238.115 74.2129C234.372 76.0033 231.198 79.0143 228.594 83.2461C225.827 87.4779 223.711 93.1745 222.246 100.336C220.781 107.335 220.049 116.042 220.049 126.459H210.039Z" fill="#6D5448"/>
</svg>
