<svg width="430" height="127" viewBox="0 0 430 127" fill="none" xmlns="http://www.w3.org/2000/svg">
<path d="M219.961 0.541016C219.961 10.9577 220.693 19.6654 222.158 26.6641C223.623 33.8255 225.658 39.5221 228.262 43.7539C231.029 47.9857 234.202 50.9967 237.783 52.7871C241.527 54.5775 245.596 55.4727 249.99 55.4727C257.477 55.4727 266.429 54.4147 276.846 52.2988C287.425 50.1829 298.656 47.9043 310.537 45.4629C322.419 43.0215 334.544 40.7428 346.914 38.627C359.447 36.5111 371.328 35.4531 382.559 35.4531C392.324 35.4531 400.218 36.8366 406.24 39.6035C412.425 42.3704 417.227 46.1139 420.645 50.834C424.062 55.554 426.341 61.0065 427.48 67.1914C428.783 73.5391 429.434 80.1309 429.434 86.9668C429.434 93.8027 429.027 100.639 428.213 107.475C427.562 114.311 426.992 120.821 426.504 127.006L416.494 126.518L416.982 110.404C417.145 105.684 416.738 100.801 415.762 95.7559C414.948 90.873 413.158 86.3158 410.391 82.084C407.624 78.015 403.555 74.597 398.184 71.8301C392.975 69.2259 386.058 67.9238 377.432 67.9238C368.154 67.9238 358.063 68.819 347.158 70.6094C336.416 72.3997 325.674 74.3529 314.932 76.4688C304.352 78.7474 294.261 80.7819 284.658 82.5723C275.055 84.5254 266.836 85.502 260 85.502C248.77 85.502 239.248 82.1654 231.436 75.4922C223.786 68.819 218.333 59.2975 215.078 46.9277C211.497 59.2975 205.882 68.819 198.232 75.4922C190.745 82.1654 181.305 85.502 169.912 85.502C163.076 85.502 154.857 84.5254 145.254 82.5723C135.651 80.7819 125.56 78.7474 114.98 76.4688C104.401 74.3529 93.6589 72.3997 82.7539 70.6094C72.0117 68.819 61.9206 67.9238 52.4805 67.9238C43.8542 67.9238 36.9368 69.2259 31.7285 71.8301C26.5202 74.597 22.4512 78.015 19.5215 82.084C16.7546 86.3158 14.8828 90.873 13.9062 95.7559C13.0924 100.801 12.7669 105.684 12.9297 110.404L13.418 126.518L3.4082 127.006C2.5944 120.007 1.94336 112.927 1.45508 105.766C0.804036 98.7669 0.478516 92.0124 0.478516 85.502C0.478516 78.5033 1.12956 71.9115 2.43164 65.7266C3.57096 59.7044 5.93099 54.4147 9.51172 49.8574C12.9297 45.4629 17.6497 41.9635 23.6719 39.3594C29.8568 36.7552 37.832 35.4531 47.5977 35.4531C58.8281 35.4531 70.6283 36.5111 82.998 38.627C95.3678 40.7428 107.493 43.0215 119.375 45.4629C131.257 47.9043 142.406 50.1829 152.822 52.2988C163.402 54.4147 172.435 55.4727 179.922 55.4727C184.316 55.4727 188.304 54.5775 191.885 52.7871C195.628 50.9967 198.802 47.9857 201.406 43.7539C204.173 39.5221 206.289 33.8255 207.754 26.6641C209.219 19.6654 209.951 10.9577 209.951 0.541016L219.961 0.541016Z" fill="#6D5448"/>
</svg>
